<mxfile host="app.diagrams.net" modified="2021-06-22T15:08:14.169Z" agent="5.0 (Windows NT 10.0; Win64; x64) AppleWebKit/537.36 (KHTML, like Gecko) Chrome/91.0.4472.114 Safari/537.36" etag="h6E7hExhPDgcP5uR391t" version="14.8.0" type="github">
  <diagram id="0x1neepwv9x9N034Tzt_" name="Page-1">
    <mxGraphModel dx="1346" dy="831" grid="1" gridSize="10" guides="1" tooltips="1" connect="1" arrows="1" fold="1" page="1" pageScale="1" pageWidth="850" pageHeight="1100" math="0" shadow="0">
      <root>
        <mxCell id="0" />
        <mxCell id="1" parent="0" />
        <mxCell id="xrQCuACPCVSYpgMawumR-18" style="edgeStyle=orthogonalEdgeStyle;rounded=0;orthogonalLoop=1;jettySize=auto;html=1;exitX=1;exitY=1;exitDx=0;exitDy=0;" edge="1" parent="1" source="xrQCuACPCVSYpgMawumR-1" target="xrQCuACPCVSYpgMawumR-6">
          <mxGeometry relative="1" as="geometry" />
        </mxCell>
        <mxCell id="xrQCuACPCVSYpgMawumR-21" style="edgeStyle=orthogonalEdgeStyle;rounded=0;orthogonalLoop=1;jettySize=auto;html=1;exitX=1;exitY=0.5;exitDx=0;exitDy=0;entryX=0.5;entryY=0.5;entryDx=0;entryDy=0;entryPerimeter=0;" edge="1" parent="1" source="xrQCuACPCVSYpgMawumR-1" target="xrQCuACPCVSYpgMawumR-2">
          <mxGeometry relative="1" as="geometry" />
        </mxCell>
        <mxCell id="xrQCuACPCVSYpgMawumR-25" style="edgeStyle=orthogonalEdgeStyle;rounded=0;orthogonalLoop=1;jettySize=auto;html=1;exitX=0.5;exitY=0;exitDx=0;exitDy=0;" edge="1" parent="1" source="xrQCuACPCVSYpgMawumR-1" target="xrQCuACPCVSYpgMawumR-11">
          <mxGeometry relative="1" as="geometry" />
        </mxCell>
        <mxCell id="xrQCuACPCVSYpgMawumR-27" style="edgeStyle=orthogonalEdgeStyle;rounded=0;orthogonalLoop=1;jettySize=auto;html=1;exitX=0;exitY=1;exitDx=0;exitDy=0;entryX=0.5;entryY=0;entryDx=0;entryDy=0;entryPerimeter=0;" edge="1" parent="1" source="xrQCuACPCVSYpgMawumR-1" target="xrQCuACPCVSYpgMawumR-3">
          <mxGeometry relative="1" as="geometry" />
        </mxCell>
        <mxCell id="xrQCuACPCVSYpgMawumR-28" style="edgeStyle=orthogonalEdgeStyle;rounded=0;orthogonalLoop=1;jettySize=auto;html=1;exitX=0.5;exitY=1;exitDx=0;exitDy=0;entryX=0.5;entryY=0;entryDx=0;entryDy=0;entryPerimeter=0;" edge="1" parent="1" source="xrQCuACPCVSYpgMawumR-1" target="xrQCuACPCVSYpgMawumR-4">
          <mxGeometry relative="1" as="geometry" />
        </mxCell>
        <mxCell id="xrQCuACPCVSYpgMawumR-30" style="edgeStyle=orthogonalEdgeStyle;rounded=0;orthogonalLoop=1;jettySize=auto;html=1;exitX=1;exitY=1;exitDx=0;exitDy=0;" edge="1" parent="1" source="xrQCuACPCVSYpgMawumR-1" target="xrQCuACPCVSYpgMawumR-10">
          <mxGeometry relative="1" as="geometry" />
        </mxCell>
        <mxCell id="xrQCuACPCVSYpgMawumR-31" style="edgeStyle=orthogonalEdgeStyle;rounded=0;orthogonalLoop=1;jettySize=auto;html=1;exitX=0;exitY=0.5;exitDx=0;exitDy=0;entryX=0.5;entryY=0;entryDx=0;entryDy=0;entryPerimeter=0;" edge="1" parent="1" source="xrQCuACPCVSYpgMawumR-1" target="xrQCuACPCVSYpgMawumR-12">
          <mxGeometry relative="1" as="geometry" />
        </mxCell>
        <mxCell id="xrQCuACPCVSYpgMawumR-32" style="edgeStyle=orthogonalEdgeStyle;rounded=0;orthogonalLoop=1;jettySize=auto;html=1;exitX=0;exitY=0;exitDx=0;exitDy=0;" edge="1" parent="1" source="xrQCuACPCVSYpgMawumR-1" target="xrQCuACPCVSYpgMawumR-13">
          <mxGeometry relative="1" as="geometry" />
        </mxCell>
        <mxCell id="xrQCuACPCVSYpgMawumR-1" value="Mwania" style="ellipse;whiteSpace=wrap;html=1;" vertex="1" parent="1">
          <mxGeometry x="150" y="340" width="120" height="80" as="geometry" />
        </mxCell>
        <mxCell id="xrQCuACPCVSYpgMawumR-38" style="edgeStyle=orthogonalEdgeStyle;rounded=0;orthogonalLoop=1;jettySize=auto;html=1;exitX=1;exitY=1;exitDx=0;exitDy=0;exitPerimeter=0;entryX=0.5;entryY=0;entryDx=0;entryDy=0;" edge="1" parent="1" source="xrQCuACPCVSYpgMawumR-2" target="xrQCuACPCVSYpgMawumR-37">
          <mxGeometry relative="1" as="geometry" />
        </mxCell>
        <mxCell id="xrQCuACPCVSYpgMawumR-40" style="edgeStyle=orthogonalEdgeStyle;rounded=0;orthogonalLoop=1;jettySize=auto;html=1;exitX=1;exitY=0.3333333333333333;exitDx=0;exitDy=0;exitPerimeter=0;" edge="1" parent="1" source="xrQCuACPCVSYpgMawumR-2" target="xrQCuACPCVSYpgMawumR-39">
          <mxGeometry relative="1" as="geometry" />
        </mxCell>
        <mxCell id="xrQCuACPCVSYpgMawumR-2" value="Artises boldi" style="shape=umlActor;verticalLabelPosition=bottom;verticalAlign=top;html=1;outlineConnect=0;" vertex="1" parent="1">
          <mxGeometry x="560" y="340" width="30" height="60" as="geometry" />
        </mxCell>
        <mxCell id="xrQCuACPCVSYpgMawumR-3" value="Brad (Fresh Hunter)" style="shape=umlActor;verticalLabelPosition=bottom;verticalAlign=top;html=1;outlineConnect=0;" vertex="1" parent="1">
          <mxGeometry x="80" y="480" width="30" height="60" as="geometry" />
        </mxCell>
        <mxCell id="xrQCuACPCVSYpgMawumR-29" style="edgeStyle=orthogonalEdgeStyle;rounded=0;orthogonalLoop=1;jettySize=auto;html=1;exitX=1;exitY=1;exitDx=0;exitDy=0;exitPerimeter=0;entryX=0.5;entryY=0;entryDx=0;entryDy=0;entryPerimeter=0;" edge="1" parent="1" source="xrQCuACPCVSYpgMawumR-4" target="xrQCuACPCVSYpgMawumR-9">
          <mxGeometry relative="1" as="geometry" />
        </mxCell>
        <mxCell id="xrQCuACPCVSYpgMawumR-4" value="Buka Syonut" style="shape=umlActor;verticalLabelPosition=bottom;verticalAlign=top;html=1;outlineConnect=0;" vertex="1" parent="1">
          <mxGeometry x="180" y="480" width="30" height="60" as="geometry" />
        </mxCell>
        <mxCell id="xrQCuACPCVSYpgMawumR-5" value="Timmy Lute" style="shape=umlActor;verticalLabelPosition=bottom;verticalAlign=top;html=1;outlineConnect=0;" vertex="1" parent="1">
          <mxGeometry x="420" y="620" width="30" height="60" as="geometry" />
        </mxCell>
        <mxCell id="xrQCuACPCVSYpgMawumR-19" style="edgeStyle=orthogonalEdgeStyle;rounded=0;orthogonalLoop=1;jettySize=auto;html=1;exitX=0.5;exitY=0.5;exitDx=0;exitDy=0;exitPerimeter=0;entryX=0.5;entryY=0.5;entryDx=0;entryDy=0;entryPerimeter=0;" edge="1" parent="1" source="xrQCuACPCVSYpgMawumR-6" target="xrQCuACPCVSYpgMawumR-7">
          <mxGeometry relative="1" as="geometry" />
        </mxCell>
        <mxCell id="xrQCuACPCVSYpgMawumR-20" style="edgeStyle=orthogonalEdgeStyle;rounded=0;orthogonalLoop=1;jettySize=auto;html=1;exitX=1;exitY=1;exitDx=0;exitDy=0;exitPerimeter=0;entryX=0.5;entryY=0;entryDx=0;entryDy=0;entryPerimeter=0;" edge="1" parent="1" source="xrQCuACPCVSYpgMawumR-6" target="xrQCuACPCVSYpgMawumR-5">
          <mxGeometry relative="1" as="geometry" />
        </mxCell>
        <mxCell id="xrQCuACPCVSYpgMawumR-6" value="Mrs Lute" style="shape=umlActor;verticalLabelPosition=bottom;verticalAlign=top;html=1;outlineConnect=0;" vertex="1" parent="1">
          <mxGeometry x="360" y="510" width="30" height="60" as="geometry" />
        </mxCell>
        <mxCell id="xrQCuACPCVSYpgMawumR-7" value="Mr Lute" style="shape=umlActor;verticalLabelPosition=bottom;verticalAlign=top;html=1;outlineConnect=0;" vertex="1" parent="1">
          <mxGeometry x="480" y="510" width="30" height="60" as="geometry" />
        </mxCell>
        <mxCell id="xrQCuACPCVSYpgMawumR-9" value="Manny Ketchum (Dead)" style="shape=umlActor;verticalLabelPosition=bottom;verticalAlign=top;html=1;outlineConnect=0;" vertex="1" parent="1">
          <mxGeometry x="180" y="580" width="30" height="60" as="geometry" />
        </mxCell>
        <mxCell id="xrQCuACPCVSYpgMawumR-10" value="Charles Spanner" style="shape=umlActor;verticalLabelPosition=bottom;verticalAlign=top;html=1;outlineConnect=0;" vertex="1" parent="1">
          <mxGeometry x="270" y="460" width="30" height="60" as="geometry" />
        </mxCell>
        <mxCell id="xrQCuACPCVSYpgMawumR-11" value="Gurand" style="shape=umlActor;verticalLabelPosition=bottom;verticalAlign=top;html=1;outlineConnect=0;" vertex="1" parent="1">
          <mxGeometry x="195" y="210" width="30" height="60" as="geometry" />
        </mxCell>
        <mxCell id="xrQCuACPCVSYpgMawumR-12" value="George Feta" style="shape=umlActor;verticalLabelPosition=bottom;verticalAlign=top;html=1;outlineConnect=0;" vertex="1" parent="1">
          <mxGeometry x="30" y="720" width="30" height="60" as="geometry" />
        </mxCell>
        <mxCell id="xrQCuACPCVSYpgMawumR-13" value="Buffalo Mozerella" style="shape=umlActor;verticalLabelPosition=bottom;verticalAlign=top;html=1;outlineConnect=0;" vertex="1" parent="1">
          <mxGeometry x="120" y="720" width="30" height="60" as="geometry" />
        </mxCell>
        <mxCell id="xrQCuACPCVSYpgMawumR-33" value="Baratone" style="shape=hexagon;perimeter=hexagonPerimeter2;whiteSpace=wrap;html=1;fixedSize=1;" vertex="1" parent="1">
          <mxGeometry x="350" width="120" height="80" as="geometry" />
        </mxCell>
        <mxCell id="xrQCuACPCVSYpgMawumR-36" style="edgeStyle=orthogonalEdgeStyle;rounded=0;orthogonalLoop=1;jettySize=auto;html=1;exitX=1;exitY=0.5;exitDx=0;exitDy=0;entryX=0.5;entryY=0;entryDx=0;entryDy=0;entryPerimeter=0;" edge="1" parent="1" source="xrQCuACPCVSYpgMawumR-34" target="xrQCuACPCVSYpgMawumR-35">
          <mxGeometry relative="1" as="geometry" />
        </mxCell>
        <mxCell id="xrQCuACPCVSYpgMawumR-34" value="Ballonlea" style="ellipse;whiteSpace=wrap;html=1;" vertex="1" parent="1">
          <mxGeometry x="870" y="120" width="120" height="80" as="geometry" />
        </mxCell>
        <mxCell id="xrQCuACPCVSYpgMawumR-35" value="Aoba The Lazy Fairy" style="shape=umlActor;verticalLabelPosition=bottom;verticalAlign=top;html=1;outlineConnect=0;" vertex="1" parent="1">
          <mxGeometry x="1050" y="200" width="30" height="60" as="geometry" />
        </mxCell>
        <mxCell id="xrQCuACPCVSYpgMawumR-37" value="Littleroot" style="ellipse;whiteSpace=wrap;html=1;" vertex="1" parent="1">
          <mxGeometry x="600" y="750" width="120" height="80" as="geometry" />
        </mxCell>
        <mxCell id="xrQCuACPCVSYpgMawumR-39" value="Roxcona" style="ellipse;whiteSpace=wrap;html=1;" vertex="1" parent="1">
          <mxGeometry x="870" y="420" width="120" height="80" as="geometry" />
        </mxCell>
      </root>
    </mxGraphModel>
  </diagram>
</mxfile>
